<?xml version="1.0" encoding="UTF-8" standalone="no"?><!-- Generator: Gravit.io --><svg xmlns="http://www.w3.org/2000/svg" xmlns:xlink="http://www.w3.org/1999/xlink" style="isolation:isolate" viewBox="0 0 300 300" width="300pt" height="300pt"><defs><clipPath id="_clipPath_IByo68yZiUZDfgxaWj3gTwllDd7VCtAs"><rect width="300" height="300"/></clipPath></defs><g clip-path="url(#_clipPath_IByo68yZiUZDfgxaWj3gTwllDd7VCtAs)"><circle vector-effect="non-scaling-stroke" cx="150" cy="150" r="50.08657453331949" fill="rgb(255,255,255)"/><g><mask id="_mask_YiSlfxqdizIvuCvWMESDRS4o0TqrDAGX"><circle vector-effect="non-scaling-stroke" cx="150" cy="149.99999999999997" r="50.094260162001994" fill="white" stroke="none"/></mask><circle vector-effect="non-scaling-stroke" cx="150" cy="149.99999999999997" r="50.094260162001994" fill="none"/><circle vector-effect="non-scaling-stroke" cx="150" cy="149.99999999999997" r="50.094260162001994" fill="none" mask="url(#_mask_YiSlfxqdizIvuCvWMESDRS4o0TqrDAGX)" stroke-width="2" stroke="rgb(0,0,0)" stroke-linejoin="miter" stroke-linecap="square" stroke-miterlimit="3"/><path d="M 157.937 181.53 L 211.063 181.53 C 221.515 181.53 230 190.015 230 200.467 L 230 223.593 C 230 234.045 221.515 242.53 211.063 242.53 L 157.937 242.53 C 147.485 242.53 139 234.045 139 223.593 L 139 200.467 C 139 190.015 147.485 181.53 157.937 181.53 Z" style="stroke:none;fill:#FFFFFF;stroke-miterlimit:10;"/><path d="M 157.937 181.53 L 211.063 181.53 C 221.515 181.53 230 190.015 230 200.467 L 230 223.593 C 230 234.045 221.515 242.53 211.063 242.53 L 157.937 242.53 C 147.485 242.53 139 234.045 139 223.593 L 139 200.467 C 139 190.015 147.485 181.53 157.937 181.53 Z" style="fill:none;stroke:#000000;stroke-width:4;stroke-linecap:square;stroke-miterlimit:2;"/><path d="M 196.917 159.07 L 250.043 159.07 C 260.495 159.07 268.98 167.555 268.98 178.007 L 268.98 201.133 C 268.98 211.585 260.495 220.07 250.043 220.07 L 196.917 220.07 C 186.465 220.07 177.98 211.585 177.98 201.133 L 177.98 178.007 C 177.98 167.555 186.465 159.07 196.917 159.07 Z" style="stroke:none;fill:#FFFFFF;stroke-miterlimit:10;"/><path d="M 196.917 159.07 L 250.043 159.07 C 260.495 159.07 268.98 167.555 268.98 178.007 L 268.98 201.133 C 268.98 211.585 260.495 220.07 250.043 220.07 L 196.917 220.07 C 186.465 220.07 177.98 211.585 177.98 201.133 L 177.98 178.007 C 177.98 167.555 186.465 159.07 196.917 159.07 Z" style="fill:none;stroke:#000000;stroke-width:4;stroke-linecap:square;stroke-miterlimit:2;"/><rect x="149.884" y="126.055" width="0.231" height="47.89" transform="matrix(1,0,0,1,0,0)" fill="rgb(0,0,0)"/><g clip-path="url(#_clipPath_8ikvGeNAdce61DYsTuHiMPvvxEiDbwIb)"><text transform="matrix(0.995,0.099,-0.099,0.995,180.878,262.343)" style="font-family:'Pontano Sans';font-weight:400;font-size:10px;font-style:normal;fill:#000000;stroke:none;">B</text><text transform="matrix(1,0.017,-0.017,1,187.165,263.058)" style="font-family:'Pontano Sans';font-weight:400;font-size:10px;font-style:normal;fill:#000000;stroke:none;">R</text><text transform="matrix(0.995,-0.099,0.099,0.995,193.444,263.074)" style="font-family:'Pontano Sans';font-weight:400;font-size:10px;font-style:normal;fill:#000000;stroke:none;">A</text><text transform="matrix(0.981,-0.196,0.196,0.981,199.35,262.406)" style="font-family:'Pontano Sans';font-weight:400;font-size:10px;font-style:normal;fill:#000000;stroke:none;">I</text><text transform="matrix(0.957,-0.291,0.291,0.957,201.619,262.152)" style="font-family:'Pontano Sans';font-weight:400;font-size:10px;font-style:normal;fill:#000000;stroke:none;">D</text><text transform="matrix(0.924,-0.383,0.383,0.924,208.168,260.187)" style="font-family:'Pontano Sans';font-weight:400;font-size:10px;font-style:normal;fill:#000000;stroke:none;">E</text><text transform="matrix(0.882,-0.471,0.471,0.882,213.314,258.029)" style="font-family:'Pontano Sans';font-weight:400;font-size:10px;font-style:normal;fill:#000000;stroke:none;">N </text><text transform="matrix(0.773,-0.634,0.634,0.773,221.469,253.213)" style="font-family:'Pontano Sans';font-weight:400;font-size:10px;font-style:normal;fill:#000000;stroke:none;">C</text><text transform="matrix(0.696,-0.718,0.718,0.696,226.548,249.009)" style="font-family:'Pontano Sans';font-weight:400;font-size:10px;font-style:normal;fill:#000000;stroke:none;">U</text><text transform="matrix(0.555,-0.832,0.832,0.555,231.187,244.315)" style="font-family:'Pontano Sans';font-weight:400;font-size:10px;font-style:normal;fill:#000000;stroke:none;">A</text><text transform="matrix(0.471,-0.882,0.882,0.471,234.646,239.462)" style="font-family:'Pontano Sans';font-weight:400;font-size:10px;font-style:normal;fill:#000000;stroke:none;">D</text><text transform="matrix(0.383,-0.924,0.924,0.383,237.877,233.437)" style="font-family:'Pontano Sans';font-weight:400;font-size:10px;font-style:normal;fill:#000000;stroke:none;">R</text><text transform="matrix(0.291,-0.957,0.957,0.291,240.182,227.601)" style="font-family:'Pontano Sans';font-weight:400;font-size:10px;font-style:normal;fill:#000000;stroke:none;">A</text></g><defs><clipPath id="_clipPath_8ikvGeNAdce61DYsTuHiMPvvxEiDbwIb"><rect x="0" y="0" width="62.278" height="41.126" transform="matrix(1,0,0,1,140.752,160.969)"/></clipPath></defs></g><g clip-path="url(#_clipPath_VYJP5IK4b6RQKRPWP9hBaNUnXRfQJCBS)"><text transform="matrix(1,0,0,1,119,167.506)" style="font-family:'Pontano Sans';font-weight:400;font-size:44px;font-style:normal;fill:#000000;stroke:none;">B</text></g><defs><clipPath id="_clipPath_VYJP5IK4b6RQKRPWP9hBaNUnXRfQJCBS"><rect x="0" y="0" width="29.028" height="55" transform="matrix(1,0,0,1,119,124)"/></clipPath></defs><g clip-path="url(#_clipPath_Pu5DwSfSmPnqwkTNsru9rWoRqyRlB2XY)"><text transform="matrix(1,0,0,1,152.179,167.506)" style="font-family:'Pontano Sans';font-weight:400;font-size:44px;font-style:normal;fill:#000000;stroke:none;">C</text></g><defs><clipPath id="_clipPath_Pu5DwSfSmPnqwkTNsru9rWoRqyRlB2XY"><rect x="0" y="0" width="30.821" height="55" transform="matrix(1,0,0,1,152.179,124)"/></clipPath></defs></g></svg>